<?xml version="1.0" encoding="utf-8"?>
<!-- Generator: Adobe Illustrator 22.1.0, SVG Export Plug-In . SVG Version: 6.00 Build 0)  -->
<svg version="1.1" id="Layer_1" xmlns="http://www.w3.org/2000/svg" xmlns:xlink="http://www.w3.org/1999/xlink" x="0px" y="0px"
	 viewBox="0 0 300.1 53" style="enable-background:new 0 0 300.1 53;" xml:space="preserve">
<style type="text/css">
	.st0{fill:#D12E2E;}
	.st1{clip-path:url(#SVGID_2_);}
	.st2{clip-path:url(#SVGID_4_);fill:#D82B27;}
</style>
<g>
	<path class="st0" d="M0,0h29.7c0.2,1,0.3,2,0.4,2.9s0.1,1.8,0.1,2.6c0,1.6-0.2,3.4-0.6,5.6H12.4v8.7H26c0.4,2.1,0.6,4,0.6,5.5
		c0,1.6-0.2,3.5-0.6,5.6H12.4v21.4C10,52.7,7.9,53,6.3,53c-1.7,0-3.8-0.2-6.3-0.6V0z"/>
	<path class="st0" d="M138,41.8c0.3,0,0.7,0.1,1.1,0.1h1.3c1.8,0,3.5-0.2,5.2-0.7c1.6-0.4,3-1.2,4.2-2.4c1.2-1.1,2.1-2.7,2.8-4.6
		c0.7-1.9,1-4.4,1-7.5c0-3-0.3-5.5-1-7.5s-1.6-3.6-2.8-4.7c-1.1-1.2-2.5-2-4-2.5s-3.2-0.8-4.8-0.8c-0.9,0-1.6,0-2,0s-0.7,0-0.8,0
		L138,41.8L138,41.8z M139.6,0.1c8.9,0,15.6,2.2,20.2,6.7c4.6,4.5,6.9,11.1,6.9,20c0,9-2.3,15.6-7,19.8s-11.6,6.3-20.8,6.3
		c-2.3,0-4.6-0.1-6.8-0.3s-4.3-0.5-6.4-0.8V1.1c0.7-0.1,1.6-0.2,2.7-0.3s2.2-0.2,3.5-0.3s2.6-0.2,3.9-0.3
		C137,0.1,138.3,0.1,139.6,0.1"/>
	<path class="st0" d="M74.4,16.2c-0.9-3.3-2.2-6-4-8.4s-4.1-4.2-6.8-5.6c-2.8-1.4-6.1-2-9.9-2s-7.2,0.7-9.9,2
		c-2.8,1.4-5.1,3.2-6.9,5.6c-1.8,2.4-3.1,5.2-4,8.4c-0.9,3.3-1.3,6.8-1.3,10.6S32,34,32.8,37.2c0.9,3.2,2.2,6,4,8.3s4.1,4.2,6.9,5.5
		c2.5,1.1,5.3,1.8,8.6,1.9c0-7.4,0-8.1,0-8.8c0-3.1-1.5-4.7-3.1-6C48,37,46.8,36,46,32.3c-0.9-4.2,1.7-15.5,2.7-19.1
		c0.2-0.7,0.3-0.7,0.4,0c0,0,0.2,10.9,0.3,14.5c0,0.2,0,0.7,0.6,0.7c0.5,0,0.6-0.5,0.6-0.7c0.5-3.6,1.4-14.5,1.4-14.5
		c0.1-0.7,0.3-0.7,0.4,0c0,0,0.3,10.9,0.8,14.5c0,0.3,0.1,0.6,0.6,0.6h0.1c0.5,0,0.5-0.4,0.6-0.6c0.5-3.7,0.8-14.5,0.8-14.5
		c0-0.7,0.3-0.7,0.4,0c0,0,0.9,10.9,1.4,14.5c0,0.2,0.1,0.7,0.6,0.7s0.6-0.5,0.6-0.7c0.2-3.6,0.3-14.5,0.3-14.5c0-0.7,0.2-0.7,0.4,0
		c0.9,3.6,3.6,14.9,2.7,19.1c-0.8,3.7-2,4.7-3.2,5.8c-1.6,1.4-3.1,2.9-3.1,6c0,0.6,0,1.3,0,8.8c3.2-0.2,6-0.8,8.4-1.9
		c2.8-1.3,5-3.1,6.8-5.5c1.8-2.3,3.1-5.1,4-8.3s1.3-6.7,1.3-10.5C75.8,23,75.3,19.4,74.4,16.2"/>
	<path class="st0" d="M121,16.2c-0.9-3.3-2.2-6-4-8.4s-4.1-4.2-6.8-5.6c-2.8-1.4-6.1-2-9.9-2s-7.2,0.7-9.9,2
		c-2.8,1.4-5.1,3.2-6.9,5.6s-3.1,5.2-4,8.4c-0.9,3.3-1.3,6.8-1.3,10.6s0.4,7.3,1.3,10.5s2.2,6,4,8.3s4.1,4.2,6.9,5.5
		c2.2,1,4.9,1.7,7.8,1.9l0.5-12c-4-1.3-7.1-7-7.1-13.9c0-7.8,3.9-14.2,8.8-14.2c4.8,0,8.8,6.3,8.8,14.2c0,6.9-3,12.6-7.1,13.9
		l0.5,12c2.9-0.2,5.5-0.8,7.7-1.9c2.8-1.3,5-3.1,6.8-5.5c1.8-2.3,3.1-5.1,4-8.3s1.3-6.7,1.3-10.5C122.3,23,121.8,19.5,121,16.2"/>
	<path class="st0" d="M201.2,53c-1.7,0-3.8-0.2-6.3-0.6V31.1h-12.5v21.2c-2.5,0.4-4.6,0.6-6.2,0.6c-1.7,0-3.8-0.2-6.3-0.6V0.6
		c1.3-0.2,2.4-0.3,3.4-0.4s1.9-0.1,2.7-0.1s1.8,0,2.9,0.1c1.1,0.1,2.2,0.2,3.4,0.4v19.3h12.5V0.6c1.3-0.2,2.4-0.3,3.4-0.4
		s1.9-0.1,2.8-0.1s1.8,0,2.9,0.1c1.1,0.1,2.2,0.2,3.4,0.4v51.7C204.9,52.7,202.8,53,201.2,53"/>
	<path class="st0" d="M231.4,53c-3.8,0-7-0.5-9.5-1.6c-2.5-1-4.5-2.6-5.9-4.5c-1.4-2-2.5-4.4-3.1-7.2s-0.9-6-0.9-9.5V0.6
		c1.4-0.2,2.5-0.3,3.5-0.4s1.9-0.1,2.8-0.1c0.8,0,1.7,0,2.6,0.1c1,0.1,2.1,0.2,3.5,0.4v28.1c0,2.4,0.1,4.4,0.3,6.1
		c0.2,1.7,0.5,3,1,4.1c0.5,1,1.2,1.8,2.1,2.3c0.9,0.5,2.1,0.7,3.5,0.7s2.6-0.2,3.6-0.7c0.9-0.5,1.6-1.2,2.1-2.3c0.5-1,0.8-2.4,1-4.1
		c0.2-1.7,0.3-3.7,0.3-6.1V0.6c1.4-0.2,2.6-0.3,3.6-0.4s1.8-0.1,2.6-0.1s1.8,0,2.7,0.1c1,0.1,2.2,0.2,3.5,0.4v29.6
		c0,3.5-0.3,6.7-0.9,9.5c-0.6,2.8-1.6,5.2-3.1,7.2c-1.4,2-3.4,3.5-5.9,4.5C238.3,52.4,235.2,53,231.4,53"/>
	<path class="st0" d="M267.5,30.6v12c0.3,0,0.7,0.1,1.2,0.1s1.1,0,1.9,0c0.9,0,1.8-0.1,2.7-0.3c0.9-0.2,1.7-0.5,2.5-1
		c0.7-0.5,1.4-1.1,1.8-1.9c0.5-0.8,0.7-1.8,0.7-3c0-2.3-0.7-3.9-2.2-4.7c-1.5-0.9-3.4-1.3-5.7-1.3L267.5,30.6L267.5,30.6z
		 M267.5,20.4h2c2,0,3.6-0.4,4.7-1.3c1.1-0.8,1.7-2.3,1.7-4.3c0-1-0.2-1.8-0.6-2.5s-0.9-1.2-1.5-1.6c-0.6-0.4-1.3-0.6-2-0.8
		c-0.7-0.1-1.5-0.2-2.2-0.2h-1c-0.4,0-0.7,0-1,0.1L267.5,20.4L267.5,20.4z M291,37.1c0,3.1-0.6,5.7-1.7,7.8c-1.1,2-2.7,3.7-4.6,4.9
		c-2,1.2-4.3,2-7,2.5S272,53,268.8,53c-2.5,0-4.8-0.1-6.8-0.3s-4.2-0.4-6.6-0.7V1c1.8-0.3,3.7-0.5,5.8-0.7c2.1-0.2,4.6-0.3,7.4-0.3
		c2.7,0,5.2,0.2,7.5,0.7s4.3,1.2,6.1,2.3c1.7,1.1,3.1,2.5,4.1,4.3s1.5,4,1.5,6.7c0,2.2-0.5,4.3-1.5,6.1c-1,1.8-2.2,3.2-3.7,4.2
		c1.1,0.4,2.1,1,3.1,1.7s1.9,1.5,2.7,2.6c0.8,1,1.4,2.3,1.9,3.7C290.7,33.6,291,35.3,291,37.1"/>
	<polygon class="st0" points="294.7,0.2 294.7,0.8 293,0.8 293,5.2 292.3,5.2 292.3,0.8 290.6,0.8 290.6,0.2 	"/>
	<path class="st0" d="M295.3,0.2h1l1.4,4.2l1.4-4.2h1v5h-0.6v-3c0-0.1,0-0.3,0-0.5s0-0.5,0-0.8L298,5.2h-0.7L295.9,1v0.2
		c0,0.1,0,0.3,0,0.6s0,0.4,0,0.6v2.9h-0.6V0.2z"/>
</g>
<g id="Foodhub_Red_Horizontal_1_">
	<g>
		<defs>
			<rect id="SVGID_1_" x="-0.9" y="-0.1" width="301" height="53.1"/>
		</defs>
		<clipPath id="SVGID_2_">
			<use xlink:href="#SVGID_1_"  style="overflow:visible;"/>
		</clipPath>
		<g class="st1">
			<defs>
				<rect id="SVGID_3_" x="-0.9" y="-0.1" width="301" height="53.1"/>
			</defs>
			<clipPath id="SVGID_4_">
				<use xlink:href="#SVGID_3_"  style="overflow:visible;"/>
			</clipPath>
			<path class="st2" d="M-0.9-0.1h29.8C29,1,29.1,2,29.2,2.9c0.1,0.9,0.1,1.8,0.1,2.6c0,1.6-0.2,3.4-0.6,5.6H11.5v8.7h13.6
				c0.4,2.1,0.6,4,0.6,5.6c0,1.6-0.2,3.5-0.6,5.6H11.5v21.4C9,52.9,7,53.1,5.3,53.1c-1.7,0-3.8-0.2-6.3-0.6V-0.1z"/>
			<path class="st2" d="M137.5,41.8c0.3,0,0.7,0.1,1.1,0.1h1.3c1.8,0,3.6-0.2,5.2-0.7c1.6-0.4,3-1.2,4.2-2.4
				c1.2-1.1,2.1-2.7,2.8-4.6c0.7-1.9,1-4.5,1-7.5c0-3-0.3-5.5-1-7.5c-0.7-2-1.6-3.6-2.8-4.7c-1.1-1.2-2.5-2-4-2.5
				c-1.6-0.5-3.2-0.8-4.9-0.8c-0.9,0-1.6,0-2,0c-0.4,0-0.7,0-0.8,0L137.5,41.8L137.5,41.8z M139.1,0c8.9,0,15.6,2.3,20.2,6.8
				c4.6,4.5,6.9,11.2,6.9,20.1c0,9-2.4,15.7-7,19.9c-4.7,4.2-11.6,6.3-20.9,6.3c-2.4,0-4.6-0.1-6.8-0.3c-2.2-0.2-4.3-0.5-6.5-0.8V1
				c0.7-0.1,1.6-0.2,2.7-0.3c1.1-0.1,2.3-0.2,3.5-0.3c1.3-0.1,2.6-0.2,3.9-0.3C136.5,0,137.8,0,139.1,0"/>
			<path class="st2" d="M73.7,16.2c-0.9-3.3-2.2-6.1-4-8.5c-1.8-2.4-4.1-4.2-6.9-5.6c-2.8-1.4-6.1-2-9.9-2s-7.2,0.7-10,2
				c-2.8,1.4-5.1,3.2-6.9,5.6c-1.8,2.4-3.2,5.2-4,8.5c-0.9,3.3-1.3,6.8-1.3,10.6s0.4,7.3,1.3,10.5c0.9,3.2,2.2,6,4,8.3
				c1.8,2.4,4.1,4.2,6.9,5.5c2.5,1.1,5.3,1.8,8.6,1.9c0-7.5,0-8.2,0-8.8c0-3.1-1.5-4.7-3.1-6.1c-1.2-1.1-2.4-2.1-3.2-5.8
				c-1-4.2,1.7-15.5,2.7-19.2c0.2-0.7,0.3-0.7,0.4,0c0,0,0.2,10.9,0.3,14.5c0,0.2,0,0.7,0.6,0.7c0.5,0,0.6-0.5,0.6-0.7
				c0.5-3.6,1.4-14.5,1.4-14.5c0.1-0.7,0.3-0.7,0.4,0c0,0,0.3,10.9,0.8,14.6c0,0.3,0.1,0.6,0.6,0.6H53c0.5,0,0.5-0.4,0.6-0.6
				c0.5-3.7,0.8-14.6,0.8-14.6c0-0.7,0.3-0.7,0.4,0c0,0,0.9,10.9,1.4,14.5c0,0.2,0.1,0.7,0.6,0.7c0.5,0,0.6-0.5,0.6-0.7
				c0.2-3.6,0.3-14.5,0.3-14.5c0-0.7,0.2-0.7,0.4,0c0.9,3.6,3.6,14.9,2.7,19.2c-0.8,3.8-2,4.7-3.2,5.8c-1.6,1.4-3.1,3-3.1,6.1
				c0,0.6,0,1.3,0,8.8c3.2-0.2,6-0.8,8.4-1.9c2.8-1.3,5.1-3.1,6.9-5.5c1.8-2.4,3.2-5.1,4-8.3c0.9-3.2,1.3-6.7,1.3-10.5
				C75.1,23,74.6,19.4,73.7,16.2"/>
			<path class="st2" d="M120.4,16.2c-0.9-3.3-2.2-6.1-4-8.5c-1.8-2.4-4.1-4.2-6.9-5.6c-2.8-1.4-6.1-2-9.9-2c-3.8,0-7.2,0.7-10,2
				c-2.8,1.4-5.1,3.2-6.9,5.6c-1.8,2.4-3.2,5.2-4,8.5c-0.9,3.3-1.3,6.8-1.3,10.6c0,3.8,0.4,7.3,1.3,10.5c0.9,3.2,2.2,6,4,8.3
				c1.8,2.4,4.1,4.2,6.9,5.5c2.3,1.1,4.9,1.7,7.8,1.9l0.5-12c-4-1.3-7.1-7-7.1-13.9c0-7.8,3.9-14.2,8.8-14.2c4.9,0,8.8,6.4,8.8,14.2
				c0,6.9-3.1,12.6-7.1,13.9l0.5,12c2.9-0.2,5.5-0.8,7.7-1.9c2.8-1.3,5.1-3.1,6.9-5.5c1.8-2.4,3.2-5.1,4-8.3
				c0.9-3.2,1.3-6.7,1.3-10.5C121.7,23,121.3,19.5,120.4,16.2"/>
			<path class="st2" d="M200.9,53.1c-1.7,0-3.8-0.2-6.3-0.6V31.1h-12.5v21.3c-2.5,0.4-4.6,0.6-6.2,0.6c-1.7,0-3.8-0.2-6.3-0.6V0.5
				c1.3-0.2,2.4-0.3,3.5-0.4c1-0.1,1.9-0.1,2.8-0.1c0.8,0,1.8,0,2.9,0.1c1.1,0.1,2.2,0.2,3.4,0.4v19.4h12.5V0.5
				c1.3-0.2,2.4-0.3,3.4-0.4C199,0,200,0,200.8,0s1.8,0,2.9,0.1c1.1,0.1,2.2,0.2,3.4,0.4v51.9C204.6,52.9,202.5,53.1,200.9,53.1"/>
			<path class="st2" d="M231.2,53.1c-3.8,0-7-0.5-9.5-1.6c-2.5-1-4.5-2.6-6-4.5c-1.5-2-2.5-4.4-3.1-7.2c-0.6-2.8-0.9-6-0.9-9.5V0.6
				c1.4-0.2,2.5-0.3,3.5-0.4c1-0.1,1.9-0.1,2.8-0.1c0.8,0,1.7,0,2.7,0.1c1,0.1,2.1,0.2,3.5,0.4v28.2c0,2.4,0.1,4.4,0.3,6.1
				c0.2,1.7,0.5,3,1,4.1c0.5,1,1.2,1.8,2.1,2.3c0.9,0.5,2.1,0.7,3.5,0.7s2.7-0.2,3.6-0.7c0.9-0.5,1.6-1.2,2.1-2.3
				c0.5-1,0.8-2.4,1-4.1s0.3-3.7,0.3-6.1V0.6c1.4-0.2,2.6-0.3,3.6-0.4c1-0.1,1.8-0.1,2.7-0.1c0.8,0,1.8,0,2.8,0.1
				c1,0.1,2.2,0.2,3.5,0.4v29.7c0,3.5-0.3,6.7-0.9,9.5c-0.6,2.8-1.6,5.2-3.1,7.2c-1.5,2-3.5,3.5-6,4.5
				C238.2,52.5,235,53.1,231.2,53.1"/>
			<path class="st2" d="M267.5,30.6v12c0.3,0,0.7,0.1,1.2,0.1s1.1,0,1.9,0c0.9,0,1.8-0.1,2.7-0.3c0.9-0.2,1.7-0.5,2.5-1
				c0.7-0.5,1.4-1.1,1.8-1.9c0.5-0.8,0.7-1.8,0.7-3c0-2.3-0.7-3.9-2.2-4.8c-1.5-0.9-3.4-1.3-5.8-1.3L267.5,30.6L267.5,30.6z
				 M267.5,20.5h2c2,0,3.6-0.4,4.7-1.3c1.1-0.8,1.7-2.3,1.7-4.3c0-1-0.2-1.8-0.6-2.5c-0.4-0.7-0.9-1.2-1.5-1.6
				c-0.6-0.4-1.3-0.6-2-0.8c-0.7-0.1-1.5-0.2-2.2-0.2h-1c-0.4,0-0.7,0-1,0.1L267.5,20.5L267.5,20.5z M291,37.2
				c0,3.1-0.6,5.7-1.7,7.8c-1.1,2-2.7,3.7-4.7,4.9c-2,1.2-4.3,2-7.1,2.5c-2.7,0.5-5.7,0.7-8.9,0.7c-2.5,0-4.8-0.1-6.9-0.3
				c-2-0.2-4.2-0.4-6.6-0.7V0.9c1.8-0.3,3.7-0.5,5.9-0.7c2.1-0.2,4.6-0.3,7.4-0.3c2.7,0,5.2,0.2,7.5,0.7c2.3,0.5,4.4,1.2,6.1,2.3
				c1.7,1.1,3.1,2.5,4.1,4.3c1,1.8,1.5,4,1.5,6.8c0,2.2-0.5,4.3-1.5,6.1c-1,1.8-2.2,3.3-3.7,4.3c1.1,0.4,2.1,1,3.1,1.7
				c1,0.7,1.9,1.6,2.7,2.6c0.8,1,1.4,2.3,1.9,3.7C290.7,33.7,291,35.3,291,37.2"/>
			<polygon class="st2" points="294.7,0.1 294.7,0.7 293,0.7 293,5.1 292.3,5.1 292.3,0.7 290.6,0.7 290.6,0.1 			"/>
			<path class="st2" d="M295.3,0.1h1l1.4,4.2l1.4-4.2h1v5h-0.6v-3c0-0.1,0-0.3,0-0.5c0-0.2,0-0.5,0-0.8L298,5.1h-0.7l-1.4-4.2V1
				c0,0.1,0,0.3,0,0.6c0,0.3,0,0.4,0,0.6v3h-0.6V0.1z"/>
		</g>
	</g>
</g>
</svg>
